<svg xmlns="http://www.w3.org/2000/svg" viewBox="0 0 512 512" width="512" height="512">
  <defs>
    <linearGradient id="bgGrad" x1="0%" y1="0%" x2="100%" y2="100%">
      <stop offset="0%" style="stop-color:#1a1a2e"/>
      <stop offset="100%" style="stop-color:#16213e"/>
    </linearGradient>
    <linearGradient id="quantumGrad" x1="0%" y1="0%" x2="100%" y2="100%">
      <stop offset="0%" style="stop-color:#00d9ff"/>
      <stop offset="100%" style="stop-color:#0077b6"/>
    </linearGradient>
    <linearGradient id="vaultGrad" x1="0%" y1="0%" x2="100%" y2="100%">
      <stop offset="0%" style="stop-color:#ffd700"/>
      <stop offset="100%" style="stop-color:#ff8c00"/>
    </linearGradient>
  </defs>

  <!-- Background circle -->
  <circle cx="256" cy="256" r="240" fill="url(#bgGrad)" stroke="#00d9ff" stroke-width="4"/>

  <!-- Quantum orbital rings -->
  <ellipse cx="256" cy="256" rx="180" ry="60" fill="none" stroke="url(#quantumGrad)" stroke-width="3" opacity="0.6" transform="rotate(-30 256 256)"/>
  <ellipse cx="256" cy="256" rx="180" ry="60" fill="none" stroke="url(#quantumGrad)" stroke-width="3" opacity="0.6" transform="rotate(30 256 256)"/>
  <ellipse cx="256" cy="256" rx="180" ry="60" fill="none" stroke="url(#quantumGrad)" stroke-width="3" opacity="0.6" transform="rotate(90 256 256)"/>

  <!-- Central vault/shield -->
  <path d="M256 120 L340 170 L340 280 C340 340 256 400 256 400 C256 400 172 340 172 280 L172 170 Z"
        fill="url(#vaultGrad)" stroke="#fff" stroke-width="3"/>

  <!-- Lock symbol on vault -->
  <rect x="226" y="220" width="60" height="50" rx="5" fill="#1a1a2e" stroke="#fff" stroke-width="2"/>
  <circle cx="256" cy="200" r="25" fill="none" stroke="#1a1a2e" stroke-width="12"/>
  <circle cx="256" cy="200" r="25" fill="none" stroke="#fff" stroke-width="4"/>
  <circle cx="256" cy="245" r="8" fill="#00d9ff"/>
  <rect x="252" y="245" width="8" height="15" fill="#00d9ff"/>

  <!-- Quantum particles -->
  <circle cx="256" cy="76" r="8" fill="#00d9ff"/>
  <circle cx="256" cy="436" r="8" fill="#00d9ff"/>
  <circle cx="100" cy="180" r="6" fill="#00d9ff" opacity="0.8"/>
  <circle cx="412" cy="180" r="6" fill="#00d9ff" opacity="0.8"/>
  <circle cx="100" cy="332" r="6" fill="#00d9ff" opacity="0.8"/>
  <circle cx="412" cy="332" r="6" fill="#00d9ff" opacity="0.8"/>

  <!-- Qt text -->
  <text x="256" y="360" font-family="Arial, sans-serif" font-size="36" font-weight="bold" fill="#fff" text-anchor="middle">QT-VAULT</text>
</svg>
